PathFileType	4	(X/Y/Z)	C:\Users\Basilio\Documents\Thesis Gigler\squatting_fais\c3dfiles\019\SLS_back_pre4\markers_experimental.trc
DataRate	CameraRate	NumFrames	NumMarkers	Units	OrigDataRate	OrigDataStartFrame	OrigNumFrames
200.000000	200.000000	4	59	mm	200.000000	0	1397
Frame#	Time	FHD			LBHD			RBHD			C7			T10			CLAV			LSHO			LUUPA			LMUPA			LDUPA			LLEP			LMEP			LRAD			LUL			LRFIN			RSHO			RUPA1			RMUPA			RDUPA			RLEP			RMEP			RRAD			RUL			RUFIN			LASI			RASI			USACR			LSACR			RSACR			LTHI1			LTHI2			LTHI3			LTHI4			LLFC			LTIB1			LTIB2			LTIB3			LTIB4			LLMAL			LMMAL			LHEE			LMT1			LMT2			LMT5			RTHI2			RTHI4			RLFC			RTIB1			RTIB2			RTIB3			RTIB4			RLMAL			RMMAL			RHEE			RMT1			RMT2			RMT5			RTHI3			RTHI			
		X1	Y1	Z1	X2	Y2	Z2	X3	Y3	Z3	X4	Y4	Z4	X5	Y5	Z5	X6	Y6	Z6	X7	Y7	Z7	X8	Y8	Z8	X9	Y9	Z9	X10	Y10	Z10	X11	Y11	Z11	X12	Y12	Z12	X13	Y13	Z13	X14	Y14	Z14	X15	Y15	Z15	X16	Y16	Z16	X17	Y17	Z17	X18	Y18	Z18	X19	Y19	Z19	X20	Y20	Z20	X21	Y21	Z21	X22	Y22	Z22	X23	Y23	Z23	X24	Y24	Z24	X25	Y25	Z25	X26	Y26	Z26	X27	Y27	Z27	X28	Y28	Z28	X29	Y29	Z29	X30	Y30	Z30	X31	Y31	Z31	X32	Y32	Z32	X33	Y33	Z33	X34	Y34	Z34	X35	Y35	Z35	X36	Y36	Z36	X37	Y37	Z37	X38	Y38	Z38	X39	Y39	Z39	X40	Y40	Z40	X41	Y41	Z41	X42	Y42	Z42	X43	Y43	Z43	X44	Y44	Z44	X45	Y45	Z45	X46	Y46	Z46	X47	Y47	Z47	X48	Y48	Z48	X49	Y49	Z49	X50	Y50	Z50	X51	Y51	Z51	X52	Y52	Z52	X53	Y53	Z53	X54	Y54	Z54	X55	Y55	Z55	X56	Y56	Z56	X57	Y57	Z57	X58	Y58	Z58	X59	Y59	Z59	

1	0	-217.7147827148438	1719.08837890625	-760.4163818359376	-344.1683349609376	1680.791625976563	-903.5664062500002	-346.5694885253907	1672.378662109375	-763.6898193359376	-372.1257019042969	1506.57177734375	-827.9067993164065	-409.0381774902345	1212.593017578125	-820.0498657226565	-243.0600280761719	1449.802368164063	-837.1491699218752	-307.2040100097657	1484.433227539063	-994.1777954101565	-312.1594238281251	1308.41357421875	-1050.880249023438	-283.1925659179688	1279.865600585938	-1023.250915527344	-311.6806030273438	1241.405639648438	-1060.1953125	-352.3016662597657	1165.633666992188	-1068.285400390625	-379.6913757324219	1153.790893554688	-1013.977844238281	-239.0327148437501	935.370300292969	-1051.000366210938	-300.0932922363282	929.3424072265627	-1078.357299804688	-218.2234039306641	866.0403442382815	-1073.478393554688	-286.1445922851563	1482.156860351563	-684.7277832031251	-333.9702758789063	1301.734619140625	-589.0695800781251	-295.2915649414063	1276.87109375	-603.3643188476564	-329.2847595214844	1232.554931640625	-582.9238891601564	-322.4512329101563	1158.867065429688	-581.5445556640626	-364.9427795410157	1152.784301757813	-621.6222534179689	-204.4358062744141	938.6668701171877	-623.8423461914064	-246.5344848632813	924.762145996094	-571.9223632812501	-176.6810607910157	865.1976318359377	-600.9649047851564	-253.8136444091797	1008.221435546875	-946.1445312500002	-230.5310211181641	1007.970764160156	-737.7964477539064	-404.715789794922	1079.123901367188	-823.5693969726565	-412.3174438476564	1045.822875976563	-850.0266723632815	-404.9457092285157	1048.137084960938	-792.779235839844	-317.7019653320313	748.1925048828126	-1011.2001953125	-280.4376525878907	671.3513793945314	-1012.147766113281	-233.4777526855469	677.8094482421876	-1001.072509765625	-304.6568603515626	617.6564331054689	-996.496032714844	-309.0253906250001	520.5242919921876	-982.0079345703127	-270.2794189453126	377.7691040039063	-952.0684814453127	-333.5880737304688	339.4757690429688	-1001.297546386719	-296.0945129394532	332.6971740722657	-979.7114868164065	-303.2045288085938	253.0020294189454	-944.3913574218752	-384.6559143066407	132.9902496337891	-958.5645141601565	-363.5361328125001	136.8652038574219	-884.7285766601565	-453.4056396484376	104.8175582885742	-906.6220703125002	-246.8557128906251	53.9947853088379	-909.3423461914065	-241.6694641113282	56.28905487060548	-946.8973388671877	-291.6065368652344	43.58821868896485	-996.5466308593752	-237.2513275146485	753.1692504882814	-669.0997314453126	-266.9127807617188	678.8168334960939	-665.2340087890626	-318.6641235351563	518.2988891601564	-688.7830810546876	-292.8033447265626	335.2533569335938	-746.9833984375001	-345.5411376953126	258.1901855468751	-685.6544189453126	-315.2867736816407	254.803207397461	-721.5010986328126	-329.4420471191407	212.5776062011719	-761.4967651367189	-390.0155029296876	130.3850555419922	-713.2841186523439	-375.6953430175782	134.2723693847657	-788.1063232421877	-457.570526123047	104.6785964965821	-760.2536010742189	-258.0432739257813	56.49567031860353	-787.8567504882815	-249.2391662597657	54.61012649536134	-745.1352539062501	-292.1809692382813	49.95399093627931	-686.9926757812501	nan	nan	nan	nan	nan	nan	
2	0.005	-217.6764221191407	1719.38818359375	-760.5262451171876	-344.1164550781251	1680.768432617188	-903.3753051757815	-346.4590148925782	1672.309692382813	-763.4634399414064	-372.0480041503907	1506.587036132813	-827.7369384765627	-409.0516967773439	1212.564208984375	-819.914978027344	-242.9978332519532	1449.808349609375	-836.993835449219	-307.2245788574219	1484.391967773438	-994.005798339844	-312.2069396972657	1308.366455078125	-1050.73828125	-283.2667236328126	1279.856201171875	-1023.100280761719	-311.7508544921876	1241.35986328125	-1060.005737304688	-352.4373474121094	1165.6083984375	-1068.075927734375	-379.6961975097657	1153.757202148438	-1013.814819335938	-239.3034973144532	935.2785644531252	-1050.868408203125	-300.3871154785157	929.2650146484377	-1078.17919921875	-218.5928344726563	865.9184570312502	-1073.363647460938	-286.0889892578126	1482.155151367188	-684.5571899414064	-334.0387573242188	1301.680297851563	-588.9017944335939	-295.3759460449219	1276.83642578125	-603.2026977539064	-329.3128967285157	1232.489013671875	-582.7661132812501	-322.5155029296876	1158.9267578125	-581.3685302734376	-365.0176696777344	1152.76416015625	-621.4650878906251	-204.7191925048829	938.5310668945315	-623.5949096679689	-246.7970123291016	924.6746215820315	-571.7072143554689	-176.916015625	865.0441894531252	-600.6745605468751	-253.8173370361329	1008.190979003906	-946.0415039062502	-230.4288940429688	1007.955444335938	-737.7147827148439	-404.7207336425782	1079.107055664063	-823.458923339844	-412.1887207031251	1045.723754882813	-849.9027099609377	-405.0143432617189	1048.135864257813	-792.7119750976565	-317.6799926757813	748.1542968750001	-1011.081665039063	-280.3339233398438	671.3190917968751	-1012.048522949219	-233.4198303222657	677.7803955078126	-1000.916442871094	-304.6076049804688	617.6452026367189	-996.4321899414065	-309.0195007324219	520.5326538085939	-981.9732055664065	-270.3369750976563	377.6914062500001	-952.0515747070315	-333.5381469726563	339.4735107421876	-1001.278747558594	-296.0951538085938	332.6593933105469	-979.6619262695315	-303.1332702636719	253.0222625732422	-944.4362792968752	-384.6488647460939	133.0088195800782	-958.5806274414065	-363.5361328125001	136.8652038574219	-884.7285766601565	-453.3810424804689	104.8181076049805	-906.582458496094	-246.8654479980469	54.03018188476564	-909.3579711914065	-241.7105102539063	56.29453659057619	-946.8845214843752	-291.6293029785157	43.55931091308594	-996.569763183594	-237.3511810302735	753.1878051757814	-668.6434326171876	-266.8507385253907	678.8106689453126	-665.1585693359376	-318.7581176757813	518.1347656250001	-688.7505493164064	-292.8681945800782	335.2465515136719	-746.9335937500001	-345.5601806640626	258.1532897949219	-685.6428833007814	-315.2859497070313	254.8437042236329	-721.4913940429689	-329.4372253417969	212.5767059326172	-761.4656982421876	-390.0144958496095	130.3824615478516	-713.2416992187501	-375.7615966796876	134.29296875	-788.0969238281252	-457.570526123047	104.6785964965821	-760.2536010742189	-257.8027648925782	56.25085067749025	-787.7812500000002	-249.2391662597657	54.61012649536134	-745.1352539062501	-292.2223815917969	49.95146560668947	-687.0090332031251	nan	nan	nan	nan	nan	nan	
3	0.01	-217.6103210449219	1719.310546875	-760.2434082031251	-344.1806030273438	1680.754028320313	-903.1804199218752	-346.3871765136719	1672.310546875	-763.2672119140626	-371.9564514160157	1506.61474609375	-827.5371704101565	-409.0897521972657	1212.574340820313	-819.789978027344	-242.9731750488282	1449.757934570313	-836.8355102539065	-307.1590270996094	1484.374267578125	-993.8367919921877	-312.2524414062501	1308.346801757813	-1050.579833984375	-283.2521667480469	1279.804809570313	-1022.958618164063	-311.7392272949219	1241.34619140625	-1059.803833007813	-352.4710388183594	1165.606811523438	-1067.880859375	-379.7555847167969	1153.759399414063	-1013.639587402344	-239.5908660888672	935.1367187500002	-1050.771118164063	-300.6777038574219	929.2254638671877	-1078.0732421875	-218.9083557128907	865.7730712890627	-1073.291015625	-286.0892028808594	1482.128784179688	-684.4412841796876	-334.0321655273438	1301.6318359375	-588.7423095703126	-295.4947204589844	1276.810668945313	-603.1279907226564	-329.4259948730469	1232.38818359375	-582.6058349609376	-322.6108093261719	1158.822998046875	-581.2485351562501	-365.0747985839844	1152.748413085938	-621.3465576171876	-204.9092559814454	938.441833496094	-623.3687744140626	-246.9896392822266	924.4988403320315	-571.4215698242189	-177.0800018310547	865.0108642578127	-600.3363647460939	-253.7864227294922	1008.223815917969	-945.9573364257815	-230.3938903808594	1007.964294433594	-737.5980834960939	-404.6506958007814	1079.134643554688	-823.3482055664065	-412.353973388672	1045.801513671875	-849.7737426757815	-405.009490966797	1048.1015625	-792.5657958984377	-317.6450500488282	748.1349487304689	-1011.021667480469	-280.3569030761719	671.3468017578126	-1012.022033691406	-233.454330444336	677.7950439453126	-1000.902709960938	-304.6130371093751	617.6119995117189	-996.3240356445315	-308.8828735351563	520.5491943359376	-981.9407958984377	-270.2366333007813	377.7136840820313	-951.9869384765627	-333.5555114746094	339.4884948730469	-1001.223937988281	-296.0552062988282	332.7272949218751	-979.641784667969	-303.1941833496094	252.979232788086	-944.3521118164065	-384.6488647460939	133.0220947265625	-958.566589355469	-363.5361328125001	136.8652038574219	-884.7285766601565	-453.3809204101564	104.8180770874024	-906.5825805664065	-246.8556823730469	53.99477005004884	-909.342224121094	-241.7157287597657	56.32463836669923	-946.9222412109377	-291.5841674804688	43.60020065307618	-996.5432739257815	-237.4731903076172	753.2421875000001	-668.2914428710939	-266.8574829101563	678.8250122070314	-665.1048583984376	-318.7017822265626	518.3242187500001	-688.6661376953126	-292.8707275390626	335.2788696289063	-746.9270629882814	-345.6324768066407	258.1353149414063	-685.5883178710939	-315.2053222656251	254.849594116211	-721.4891357421876	-329.4651184082032	212.5707702636719	-761.3895874023439	-389.9766845703126	130.3411865234375	-713.2627563476564	-375.7879028320313	134.2472076416016	-788.1058349609377	-457.570526123047	104.6785964965821	-760.2536010742189	-257.8017578125001	56.24928665161134	-787.8237915039065	-249.2391662597657	54.61012649536134	-745.1352539062501	-292.1809692382813	49.95399475097658	-686.9926757812501	nan	nan	nan	nan	nan	nan	
4	0.015	-217.5507507324219	1719.350830078125	-760.4030151367189	-344.1883239746094	1680.761352539063	-902.9360351562502	-346.3849792480469	1672.321533203125	-763.1022338867189	-371.9541931152344	1506.582763671875	-827.396423339844	-409.0484008789064	1212.583251953125	-819.6428222656252	-243.0140228271485	1449.724731445313	-836.6868286132815	-307.1740722656251	1484.325561523438	-993.6765747070315	-312.2283020019532	1308.32470703125	-1050.397338867188	-283.2756958007813	1279.765014648438	-1022.809692382813	-311.8005981445313	1241.329956054688	-1059.67138671875	-352.6179504394532	1165.644897460938	-1067.684326171875	-379.8857116699219	1153.756713867188	-1013.47314453125	-239.7954254150391	935.0343017578127	-1050.61962890625	-300.8993530273438	929.1672363281252	-1077.8623046875	-219.3365936279297	865.6695556640627	-1073.182861328125	-286.0561523437501	1482.025268554688	-684.2786254882814	-334.0441284179688	1301.63720703125	-588.6007080078126	-296.6676330566407	1278.47705078125	-603.8140258789064	-329.5511779785157	1232.279418945313	-582.4704589843751	-322.6630249023438	1158.85791015625	-581.1094970703126	-365.0847473144532	1152.724731445313	-621.2264404296876	-205.1083679199219	938.3717041015627	-623.1465454101564	-247.2827606201172	924.4160766601565	-571.2030639648439	-177.3250122070313	864.858581542969	-600.1236572265626	-253.7912750244141	1008.177917480469	-945.8046875000002	-230.3822784423829	1007.940124511719	-737.5589599609376	-404.689422607422	1079.104858398438	-823.2609863281252	-412.3318176269532	1045.79736328125	-849.6782836914065	-404.8838806152345	1048.109008789063	-792.4299926757815	-317.6362609863282	748.1239624023439	-1010.916870117188	-280.3148498535157	671.3321533203126	-1011.935180664063	-233.407943725586	677.8304443359376	-1000.815856933594	-304.5945739746094	617.6497802734376	-996.3226318359377	-308.9517517089844	520.5508422851564	-981.8574218750002	-270.1984558105469	377.7447509765626	-951.9421997070315	-333.4934387207032	339.4670104980469	-1001.210510253906	-296.0012207031251	332.7410888671876	-979.6059570312502	-303.1035156250001	253.0321807861329	-944.3135986328127	-384.6344604492189	133.0439147949219	-958.5831298828127	-366.1362915039063	137.0726318359375	-886.0362548828127	-453.3806457519532	104.8180160522461	-906.5828857421877	-246.8329315185547	54.09618759155275	-909.3348388671877	-241.6490631103516	56.28535079956056	-946.9465332031252	-291.5286865234376	43.57665252685548	-996.586853027344	-237.5204315185547	753.1853027343751	-668.0664672851564	-266.8116149902344	678.7835693359376	-665.0720825195314	-318.6929321289063	518.4004516601564	-688.6445922851564	-292.8705444335938	335.2787780761719	-746.9271240234376	-345.6505737304688	258.0996704101563	-685.5780029296876	-315.2037353515626	254.8387145996094	-721.4260864257814	-329.4650573730469	212.5708160400391	-761.3898315429689	-390.0062255859376	130.3809356689453	-713.2161865234376	-375.8171691894532	134.2685089111328	-788.1469726562502	-457.5730285644532	104.7145080566407	-760.2579956054689	-257.8015136718751	56.25081634521486	-787.7808227539065	-249.2391662597657	54.61012649536134	-745.1352539062501	-292.2223815917969	49.95146560668947	-687.0090332031251	nan	nan	nan	nan	nan	nan	
